<svg width="16" height="16" viewBox="0 0 16 16" fill="none" xmlns="http://www.w3.org/2000/svg">
<path d="M12.9242 10.3335C12.9241 7.61363 10.7193 5.40872 7.99939 5.40869C5.27948 5.40869 3.07473 7.61361 3.07459 10.3335V11.3335C3.07459 12.3967 3.93624 13.2583 4.99939 13.2583H10.9994C12.0625 13.2583 12.9242 12.3967 12.9242 11.3335V10.3335ZM7.07459 9.33349C7.07459 9.7431 6.74201 10.0757 6.3324 10.0757C5.92291 10.0756 5.59119 9.74302 5.59119 9.33349V8.00049C5.59119 7.59096 5.92291 7.25844 6.3324 7.2583C6.74201 7.2583 7.07459 7.59087 7.07459 8.00049V9.33349ZM10.4076 9.33349C10.4076 9.74297 10.0758 10.0755 9.66638 10.0757C9.25677 10.0757 8.92419 9.7431 8.92419 9.33349V8.00049C8.92419 7.59087 9.25677 7.2583 9.66638 7.2583C10.0758 7.25851 10.4076 7.591 10.4076 8.00049V9.33349ZM9.5072 2.03271C9.5072 2.59575 9.19717 3.08324 8.7406 3.34228V3.96924C11.9306 4.33684 14.4075 7.04513 14.4076 10.3335V11.3335C14.4076 13.2159 12.8817 14.7417 10.9994 14.7417H4.99939C3.11702 14.7417 1.59119 13.2159 1.59119 11.3335V10.3335C1.59132 7.04542 4.06764 4.33722 7.2572 3.96924V3.34131C6.80121 3.08211 6.4906 2.59532 6.4906 2.03271C6.49077 1.19982 7.16646 0.524902 7.99939 0.524902C8.83228 0.524946 9.50704 1.19985 9.5072 2.03271Z" fill="#0085FF" style="fill:#0085FF;fill:color(display-p3 0.0000 0.5216 1.0000);fill-opacity:1;"/>
</svg>
