<svg width="20" height="20" viewBox="0 0 20 20" fill="none" xmlns="http://www.w3.org/2000/svg">
<path fill-rule="evenodd" clip-rule="evenodd" d="M10.052 11.5342C9.97774 11.5057 9.95258 11.4241 10.0211 11.3713C10.6034 10.9225 12.2707 9.76044 12.8584 9.26047C12.973 9.16299 13.0032 9.03577 12.8639 8.93237C12.5968 8.73408 11.6538 8.40548 10.5622 8.39651C8.99992 8.38374 7.46517 8.82588 6.79191 9.18377C6.63212 9.26873 6.72802 9.49263 6.8913 9.46752C9.28065 9.10019 10.8414 9.65316 10.9077 9.71012C10.955 9.75084 10.9523 9.81064 10.9003 9.85153C10.8562 9.88629 8.00114 11.938 7.14322 12.6621C7.00812 12.7761 7.04362 13.015 7.26469 13.0553C7.47061 13.0929 7.83802 13.1341 8.2073 13.1467C11.2652 13.2518 13.7552 12.532 14.7801 12.1043C14.7801 12.1043 14.7489 12.0015 14.589 12.0169C14.3056 12.0443 13.8101 12.0588 13.2272 12.0401C12.2144 12.0075 10.9379 11.8747 10.052 11.5342Z" fill="var(------icon_primary, #4D4D4D)" style="fill:#4D4D4D;fill:color(display-p3 0.3020 0.3020 0.3020);fill-opacity:1;"/>
<path d="M9.7804 1.96875C9.87518 1.79509 10.1251 1.79504 10.2198 1.96875L12.6896 6.49902L12.8605 6.81152L13.2101 6.87695L18.2823 7.82715C18.4765 7.86376 18.5537 8.1004 18.4181 8.24414L14.8732 11.9941L14.6281 12.252L14.674 12.6055L15.338 17.7227C15.3633 17.9188 15.1613 18.0653 14.9825 17.9805L10.3214 15.7676L10.0001 15.6152L9.67786 15.7676L5.01672 17.9805C4.83804 18.0651 4.6369 17.9188 4.66223 17.7227L5.32532 12.6055L5.37122 12.252L5.12708 11.9941L1.58215 8.24414C1.44626 8.10034 1.52341 7.86357 1.7179 7.82715L6.78918 6.87695L7.13977 6.81152L7.30969 6.49902L9.7804 1.96875Z" stroke="var(------icon_primary, #4D4D4D)" style="stroke:#4D4D4D;stroke:color(display-p3 0.3020 0.3020 0.3020);stroke-opacity:1;" stroke-width="1.5"/>
</svg>
