<svg width="12" height="12" viewBox="0 0 12 12" fill="none" xmlns="http://www.w3.org/2000/svg">
<path d="M6 0.904297C6.26793 0.904297 6.51202 1.04542 7 1.32715L9.54688 2.79785C10.0347 3.07951 10.2791 3.22014 10.4131 3.45215C10.547 3.68414 10.5469 3.96606 10.5469 4.5293V7.4707L10.5449 7.84375C10.5386 8.17159 10.5136 8.37382 10.4131 8.54785L10.3574 8.63086C10.2143 8.81719 9.97389 8.95561 9.54688 9.20215L7 10.6729L6.67578 10.8574C6.38857 11.016 6.20102 11.0957 6 11.0957L5.90039 11.0889C5.7339 11.0669 5.56372 10.9897 5.32422 10.8574L5 10.6729L2.45312 9.20215C2.02611 8.95561 1.78566 8.81719 1.64258 8.63086L1.58691 8.54785C1.48645 8.37382 1.46136 8.17159 1.45508 7.84375L1.45312 7.4707V4.5293C1.45313 3.96606 1.45299 3.68414 1.58691 3.45215C1.68738 3.27814 1.85016 3.15565 2.13086 2.98633L2.45312 2.79785L5 1.32715C5.48798 1.04542 5.73207 0.904297 6 0.904297ZM5.93359 1.78418C5.82499 1.83338 5.68314 1.91433 5.4248 2.06348L2.87793 3.53418C2.61992 3.68314 2.47966 3.76555 2.38281 3.83496C2.3546 3.85519 2.33738 3.86982 2.32715 3.87891C2.32437 3.89223 2.3199 3.91473 2.31641 3.9502C2.30472 4.06879 2.30371 4.2313 2.30371 4.5293V7.4707C2.30371 7.7687 2.30472 7.93121 2.31641 8.0498C2.31982 8.08445 2.32439 8.10668 2.32715 8.12012C2.33731 8.12918 2.35415 8.14449 2.38281 8.16504C2.47966 8.23445 2.61992 8.31686 2.87793 8.46582L5.4248 9.93652C5.68314 10.0857 5.82499 10.1666 5.93359 10.2158C5.96541 10.2302 5.98708 10.2369 6 10.2412C6.01292 10.2369 6.03459 10.2302 6.06641 10.2158C6.17501 10.1666 6.31686 10.0857 6.5752 9.93652L9.12207 8.46582C9.38008 8.31686 9.52034 8.23445 9.61719 8.16504C9.64534 8.14485 9.66163 8.12921 9.67188 8.12012C9.67464 8.1067 9.68016 8.08462 9.68359 8.0498C9.69528 7.93121 9.69629 7.7687 9.69629 7.4707V4.5293C9.69629 4.2313 9.69528 4.06879 9.68359 3.9502C9.68008 3.91456 9.67466 3.8922 9.67188 3.87891C9.66157 3.86979 9.6449 3.85483 9.61719 3.83496C9.52034 3.76555 9.38008 3.68314 9.12207 3.53418L6.5752 2.06348C6.31686 1.91433 6.17501 1.83338 6.06641 1.78418C6.03435 1.76967 6.01289 1.76206 6 1.75781C5.98711 1.76206 5.96565 1.76967 5.93359 1.78418ZM7.96191 4.60547C8.13499 4.43963 8.41566 4.43984 8.58887 4.60547C8.76206 4.77144 8.76206 5.04106 8.58887 5.20703L6.34961 7.35352C5.97269 7.71463 5.36129 7.71463 4.98438 7.35352L3.78809 6.20703C3.6149 6.04106 3.6149 5.77144 3.78809 5.60547C3.96118 5.43966 4.24185 5.43981 4.41504 5.60547L5.61133 6.75195C5.64189 6.78124 5.69209 6.78124 5.72266 6.75195L7.96191 4.60547Z" fill="#0099FF" fill-opacity="0.8" style="fill:#0099FF;fill:color(display-p3 0.0000 0.6000 1.0000);fill-opacity:0.8;"/>
</svg>
