<svg width="20" height="20" viewBox="0 0 20 20" fill="none" xmlns="http://www.w3.org/2000/svg">
<path fill-rule="evenodd" clip-rule="evenodd" d="M3.33333 2.5C2.8731 2.5 2.5 2.8731 2.5 3.33333V16.6667C2.5 17.1269 2.8731 17.5 3.33333 17.5H16.6666C17.1268 17.5 17.4999 17.1269 17.4999 16.6667V3.33333C17.4999 2.8731 17.1268 2.5 16.6666 2.5H3.33333ZM6.83333 4.16667H4.16667V6.83333H6.83333V4.16667ZM6.83333 8.66663H4.16667V11.3333H6.83333V8.66663ZM4.16667 13.1667H6.83333V15.8334H4.16667V13.1667ZM11.3335 4.16667H8.66682V6.83333H11.3335V4.16667ZM8.66682 8.66663H11.3335V11.3333H8.66682V8.66663ZM11.3335 13.1667H8.66682V15.8334H11.3335V13.1667ZM13.1666 4.16667H15.8333V6.83333H13.1666V4.16667ZM15.8333 8.66663H13.1666V11.3333H15.8333V8.66663ZM13.1666 13.1667H15.8333V15.8334H13.1666V13.1667Z" fill="var(------icon_primary, #4D4D4D)" style="fill:#4D4D4D;fill:color(display-p3 0.3020 0.3020 0.3020);fill-opacity:1;"/>
</svg>
