<svg width="20" height="20" viewBox="0 0 20 20" fill="none" xmlns="http://www.w3.org/2000/svg">
<path d="M9.24097 4.75928C6.26814 5.13321 3.96486 7.67915 3.9646 10.7661C3.9646 14.1119 6.66926 16.8208 10.0007 16.8208C13.3319 16.8204 16.0359 14.1117 16.0359 10.7661C16.0357 8.89044 15.1863 7.21441 13.8503 6.10303L14.3298 5.52686L14.8093 4.94971C16.4739 6.33442 17.5357 8.4269 17.5359 10.7661C17.5359 14.9362 14.1642 18.3204 10.0007 18.3208C5.83691 18.3208 2.4646 14.9364 2.4646 10.7661C2.46486 6.91692 5.33679 3.73857 9.05347 3.271L9.24097 4.75928ZM14.157 1.99951L14.5984 2.60596L12.4519 4.1665L12.949 10.4624C13.0457 10.7522 13.1003 11.0606 13.1003 11.3813C13.1002 13.0391 11.7044 14.3832 9.98218 14.3833L9.82104 14.3794C8.17351 14.2987 6.8632 12.9872 6.86304 11.3813C6.86305 9.72349 8.2598 8.37952 9.98218 8.37939L10.1423 8.3833C10.555 8.40343 10.9465 8.50083 11.3015 8.66064L10.9236 3.86768L10.8914 3.44873L11.2302 3.20166L13.7166 1.39307L14.157 1.99951ZM9.98218 9.87939C9.03372 9.87952 8.36305 10.6054 8.36304 11.3813C8.36321 12.1572 9.03384 12.8832 9.98218 12.8833C10.7883 12.8832 11.3911 12.3579 11.5544 11.7241L11.5447 11.7251L11.4714 10.7983C11.2334 10.277 10.6842 9.8795 9.98218 9.87939Z" fill="var(------icon_primary, #4D4D4D)" style="fill:#4D4D4D;fill:color(display-p3 0.3020 0.3020 0.3020);fill-opacity:1;"/>
</svg>
