<svg width="16" height="16" viewBox="0 0 16 16" fill="none" xmlns="http://www.w3.org/2000/svg">
<path d="M6.66671 10.598L10.6667 7.99992L6.66671 5.40184V10.598Z" fill="var(------text_secondary, #8C8C8C)" style="fill:#8C8C8C;fill:color(display-p3 0.5506 0.5506 0.5506);fill-opacity:1;"/>
<path fill-rule="evenodd" clip-rule="evenodd" d="M8.00004 1.33325C11.6819 1.33325 14.6667 4.31802 14.6667 7.99992C14.6667 11.6818 11.6819 14.6666 8.00004 14.6666C4.31814 14.6666 1.33337 11.6818 1.33337 7.99992C1.33337 4.31802 4.31814 1.33325 8.00004 1.33325ZM8.00004 2.66659C10.9456 2.66659 13.3334 5.0544 13.3334 7.99992C13.3334 10.9454 10.9456 13.3333 8.00004 13.3333C5.05452 13.3333 2.66671 10.9454 2.66671 7.99992C2.66671 5.0544 5.05452 2.66659 8.00004 2.66659Z" fill="var(------text_secondary, #8C8C8C)" style="fill:#8C8C8C;fill:color(display-p3 0.5506 0.5506 0.5506);fill-opacity:1;"/>
</svg>
