<svg width="20" height="20" viewBox="0 0 20 20" fill="none" xmlns="http://www.w3.org/2000/svg">
<path d="M9.00049 1.8271C9.61917 1.47015 10.3819 1.46998 11.0005 1.8271L16.5786 5.0478C17.1969 5.40506 17.5784 6.0652 17.5786 6.77925V13.2207L17.5737 13.3535C17.5296 14.0158 17.1583 14.6171 16.5786 14.9521L11.0005 18.1728L10.8833 18.2353C10.327 18.509 9.674 18.5089 9.11768 18.2353L9.00049 18.1728L3.42236 14.9521C2.84244 14.6171 2.47136 14.0159 2.42725 13.3535L2.42236 13.2207V6.77925C2.42255 6.10973 2.75769 5.48757 3.30908 5.11811L3.42236 5.0478L9.00049 1.8271ZM4.42236 6.77925V13.2207L10.0005 16.4404L15.5786 13.2207V6.77925L10.0005 3.55952L4.42236 6.77925ZM13.4058 8.97847L7.50049 12.3886L6.6665 10.9453L12.5728 7.53511L13.4058 8.97847Z" fill="var(------icon_allwhite_primary, white)" style="fill: var(------icon_allwhite_primary, white);fill-opacity:1;"/>
</svg>
