<svg width="10" height="10" viewBox="0 0 10 10" fill="none" xmlns="http://www.w3.org/2000/svg">
<path fill-rule="evenodd" clip-rule="evenodd" d="M3.08288 9.00052C2.94457 8.8622 2.94457 8.63796 3.08288 8.49965L6.36148 5.22105C6.44811 5.13442 6.49783 5.08431 6.53141 5.04475C6.54514 5.02858 6.55197 5.01889 6.5549 5.01439C6.55711 5.00498 6.55711 4.99518 6.5549 4.98577C6.55197 4.98127 6.54514 4.97158 6.53141 4.95541C6.49783 4.91586 6.44811 4.86575 6.36148 4.77911L3.08288 1.50051C2.94457 1.3622 2.94457 1.13796 3.08288 0.999647C3.22119 0.861336 3.44544 0.861336 3.58375 0.999647L6.87078 4.28668C6.94602 4.3619 7.01679 4.43266 7.0714 4.49699C7.13074 4.56689 7.19151 4.65214 7.22717 4.76188C7.27747 4.9167 7.27747 5.08346 7.22717 5.23828C7.19151 5.34802 7.13074 5.43327 7.0714 5.50317C7.01679 5.5675 6.94601 5.63826 6.87078 5.71349L3.58375 9.00052C3.44544 9.13883 3.22119 9.13883 3.08288 9.00052Z" fill="var(------icon_primary_light, #6B6B70)" style="fill:#6B6B70;fill:color(display-p3 0.4196 0.4196 0.4392);fill-opacity:1;"/>
</svg>
