<svg width="16" height="16" viewBox="0 0 16 16" fill="none" xmlns="http://www.w3.org/2000/svg">
<path d="M12.9241 10.3335C12.924 7.61363 10.7192 5.40872 7.99926 5.40869C5.27935 5.40869 3.0746 7.61361 3.07446 10.3335V11.3335C3.07446 12.3967 3.93611 13.2583 4.99926 13.2583H10.9993C12.0624 13.2583 12.9241 12.3967 12.9241 11.3335V10.3335ZM7.07446 9.33349C7.07446 9.7431 6.74188 10.0757 6.33227 10.0757C5.92278 10.0756 5.59106 9.74302 5.59106 9.33349V8.00049C5.59106 7.59096 5.92278 7.25844 6.33227 7.2583C6.74188 7.2583 7.07446 7.59087 7.07446 8.00049V9.33349ZM10.4075 9.33349C10.4075 9.74297 10.0757 10.0755 9.66625 10.0757C9.25664 10.0757 8.92406 9.7431 8.92406 9.33349V8.00049C8.92406 7.59087 9.25664 7.2583 9.66625 7.2583C10.0757 7.25851 10.4075 7.591 10.4075 8.00049V9.33349ZM9.50707 2.03271C9.50707 2.59575 9.19704 3.08324 8.74047 3.34228V3.96924C11.9305 4.33684 14.4074 7.04513 14.4075 10.3335V11.3335C14.4075 13.2159 12.8816 14.7417 10.9993 14.7417H4.99926C3.11689 14.7417 1.59106 13.2159 1.59106 11.3335V10.3335C1.59119 7.04542 4.06751 4.33722 7.25707 3.96924V3.34131C6.80108 3.08211 6.49047 2.59532 6.49047 2.03271C6.49064 1.19982 7.16633 0.524902 7.99926 0.524902C8.83215 0.524946 9.50691 1.19985 9.50707 2.03271Z" fill="#0085FF" style="fill:#0085FF;fill:color(display-p3 0.0000 0.5216 1.0000);fill-opacity:1;"/>
</svg>
