<svg width="20" height="20" viewBox="0 0 20 20" fill="none" xmlns="http://www.w3.org/2000/svg">
<circle cx="10.0001" cy="10.0001" r="2.33333" stroke="#4D4D4D" style="stroke:#4D4D4D;stroke:color(display-p3 0.3020 0.3020 0.3020);stroke-opacity:1;" stroke-width="2"/>
<path d="M9.99976 5.16675C12.3791 5.16675 14.227 6.26069 15.5046 7.49097C16.1433 8.10594 16.6244 8.74178 16.9402 9.25854C17.0982 9.5172 17.2074 9.73526 17.2742 9.89526C17.2921 9.93824 17.303 9.97345 17.3123 9.99976C17.303 10.0261 17.2922 10.0619 17.2742 10.1052C17.2074 10.2652 17.0982 10.4833 16.9402 10.7419C16.6244 11.2586 16.1431 11.8937 15.5046 12.5085C14.227 13.7388 12.3791 14.8337 9.99976 14.8337C7.62058 14.8336 5.77338 13.7388 4.49585 12.5085C3.85738 11.8937 3.37608 11.2586 3.0603 10.7419C2.90219 10.4832 2.79214 10.2653 2.72534 10.1052C2.70723 10.0618 2.69653 10.0262 2.68726 9.99976C2.69651 9.97344 2.70737 9.93833 2.72534 9.89526C2.79213 9.73522 2.90214 9.51736 3.0603 9.25854C3.37611 8.74178 3.85722 8.10594 4.49585 7.49097C5.77338 6.26081 7.62068 5.16685 9.99976 5.16675Z" stroke="#4D4D4D" style="stroke:#4D4D4D;stroke:color(display-p3 0.3020 0.3020 0.3020);stroke-opacity:1;" stroke-width="2"/>
</svg>
