<svg width="20" height="20" viewBox="0 0 20 20" fill="none" xmlns="http://www.w3.org/2000/svg">
<path d="M13.9587 3.5C15.3623 3.50018 16.4998 4.63838 16.4998 6.04199C16.4996 7.44546 15.3622 8.58283 13.9587 8.58301H11.4167V6.04199C11.4167 4.63827 12.555 3.5 13.9587 3.5Z" stroke="#4D4D4D" style="stroke:#4D4D4D;stroke:color(display-p3 0.3020 0.3020 0.3020);stroke-opacity:1;" stroke-width="2" stroke-linejoin="round"/>
<path d="M13.9587 11.4167C15.3623 11.4169 16.4998 12.5551 16.4998 13.9587C16.4996 15.3622 15.3622 16.4996 13.9587 16.4998C12.5551 16.4998 11.4169 15.3623 11.4167 13.9587V11.4167H13.9587Z" stroke="#4D4D4D" style="stroke:#4D4D4D;stroke:color(display-p3 0.3020 0.3020 0.3020);stroke-opacity:1;" stroke-width="2" stroke-linejoin="round"/>
<path d="M6.04199 3.5C7.44557 3.50018 8.58301 4.63838 8.58301 6.04199V8.58301H6.04199C4.63838 8.58301 3.50018 7.44557 3.5 6.04199C3.5 4.63827 4.63827 3.5 6.04199 3.5Z" stroke="#4D4D4D" style="stroke:#4D4D4D;stroke:color(display-p3 0.3020 0.3020 0.3020);stroke-opacity:1;" stroke-width="2" stroke-linejoin="round"/>
<path d="M6.04199 11.4167H8.58301V13.9587C8.58283 15.3622 7.44546 16.4996 6.04199 16.4998C4.63838 16.4998 3.50018 15.3623 3.5 13.9587C3.5 12.555 4.63827 11.4167 6.04199 11.4167Z" stroke="#4D4D4D" style="stroke:#4D4D4D;stroke:color(display-p3 0.3020 0.3020 0.3020);stroke-opacity:1;" stroke-width="2" stroke-linejoin="round"/>
</svg>
