<svg width="20" height="20" viewBox="0 0 20 20" fill="none" xmlns="http://www.w3.org/2000/svg">
<path d="M8.55054 2.66675H11.449C14.6586 2.66675 17.3335 5.39489 17.3337 8.85132C17.3337 11.9841 15.1299 14.5276 12.3289 14.9685L11.3484 15.1228L11.4958 16.1052C11.5203 16.2669 11.5929 16.4694 11.6316 16.5779C11.6862 16.7311 11.7575 16.9206 11.8367 17.1238C11.8387 17.1291 11.8401 17.1325 11.8406 17.1345C11.8408 17.1355 11.8405 17.137 11.8406 17.1375C11.8402 17.1384 11.8396 17.1397 11.8386 17.1414C11.8364 17.1451 11.833 17.15 11.8289 17.1541L11.822 17.1589L6.25366 14.5476L6.24683 14.5447L6.23901 14.5408C6.10027 14.4784 5.96402 14.4108 5.83081 14.3376L5.82202 14.3328C3.9578 13.3046 2.66675 11.2454 2.66675 8.85132C2.66694 5.50284 5.17671 2.83775 8.25171 2.67456L8.55054 2.66675Z" stroke="#4D4D4D" style="stroke:#4D4D4D;stroke:color(display-p3 0.3020 0.3020 0.3020);stroke-opacity:1;" stroke-width="2"/>
</svg>
