<svg width="20" height="20" viewBox="0 0 20 20" fill="none" xmlns="http://www.w3.org/2000/svg">
<path d="M7.30928 11.3027C7.51055 10.9672 7.94565 10.8584 8.28111 11.0597L8.86383 11.4093C9.56317 11.8289 10.4368 11.8289 11.1362 11.4093L11.7189 11.0597C12.0544 10.8584 12.4895 10.9672 12.6907 11.3027C12.892 11.6381 12.7832 12.0732 12.4478 12.2745L11.8651 12.6241C10.7171 13.3129 9.28293 13.3129 8.13496 12.6241L7.55224 12.2745C7.21679 12.0732 7.10801 11.6381 7.30928 11.3027Z" fill="var(------icon_primary, #1A1A1A)" style="fill:#1A1A1A;fill:color(display-p3 0.1020 0.1020 0.1020);fill-opacity:1;"/>
<path fill-rule="evenodd" clip-rule="evenodd" d="M11.5282 1.79199H8.47185C8.02914 1.79198 7.65462 1.79197 7.34766 1.81705C7.02593 1.84334 6.71653 1.90067 6.42177 2.05085C5.97489 2.27855 5.61156 2.64188 5.38386 3.08877C5.23367 3.38352 5.17635 3.69292 5.15006 4.01465C5.12523 4.31852 5.12499 4.68856 5.125 5.12545C4.68231 5.12611 4.30642 5.13026 3.99066 5.15606C3.59945 5.18803 3.2386 5.25671 2.89928 5.4296C2.37399 5.69725 1.94692 6.12432 1.67927 6.6496C1.50638 6.98893 1.4377 7.34978 1.40574 7.74098C1.37498 8.11738 1.37499 8.57923 1.375 9.13781V13.3628C1.37499 13.9214 1.37498 14.3833 1.40574 14.7597C1.4377 15.1509 1.50638 15.5117 1.67927 15.851C1.94692 16.3763 2.37399 16.8034 2.89928 17.0711C3.2386 17.2439 3.59945 17.3126 3.99066 17.3446C4.36706 17.3753 4.82891 17.3753 5.3875 17.3753H14.6125C15.1711 17.3753 15.6329 17.3753 16.0093 17.3446C16.4005 17.3126 16.7614 17.2439 17.1007 17.0711C17.626 16.8034 18.0531 16.3763 18.3207 15.851C18.4936 15.5117 18.5623 15.1509 18.5943 14.7597C18.625 14.3833 18.625 13.9214 18.625 13.3629V9.13779C18.625 8.57922 18.625 8.11738 18.5943 7.74098C18.5623 7.34978 18.4936 6.98893 18.3207 6.6496C18.0531 6.12432 17.626 5.69725 17.1007 5.4296C16.7614 5.25671 16.4005 5.18803 16.0093 5.15606C15.6936 5.13026 15.3177 5.12611 14.875 5.12545C14.875 4.68856 14.8748 4.31852 14.8499 4.01465C14.8237 3.69292 14.7663 3.38352 14.6161 3.08877C14.3884 2.64188 14.0251 2.27855 13.5782 2.05085C13.2835 1.90067 12.9741 1.84334 12.6523 1.81705C12.3454 1.79197 11.9709 1.79198 11.5282 1.79199ZM13.4583 5.12533C13.4583 4.67011 13.4572 4.36529 13.438 4.13001C13.4189 3.89589 13.3854 3.79368 13.3539 3.73192C13.262 3.5516 13.1154 3.40499 12.9351 3.31311C12.8733 3.28164 12.7711 3.24814 12.537 3.22901C12.2946 3.20921 11.9784 3.20866 11.5 3.20866H8.5C8.0216 3.20866 7.7054 3.20921 7.46302 3.22901C7.2289 3.24814 7.12669 3.28164 7.06493 3.31311C6.8846 3.40499 6.738 3.5516 6.64612 3.73192C6.61465 3.79368 6.58115 3.89589 6.56202 4.13001C6.5428 4.36529 6.54172 4.67011 6.54167 5.12533H13.4583ZM4.10602 6.56802C3.80242 6.59283 3.64876 6.63768 3.54243 6.69186C3.28371 6.82369 3.07336 7.03403 2.94153 7.29276C2.88736 7.39908 2.8425 7.55275 2.8177 7.85634C2.79222 8.16821 2.79167 8.57192 2.79167 9.16699V13.3337C2.79167 13.9287 2.79222 14.3324 2.8177 14.6443C2.8425 14.9479 2.88736 15.1016 2.94153 15.2079C3.07336 15.4666 3.28371 15.677 3.54243 15.8088C3.64876 15.863 3.80242 15.9078 4.10602 15.9326C4.41788 15.9581 4.82159 15.9587 5.41667 15.9587H14.5833C15.1784 15.9587 15.5821 15.9581 15.894 15.9326C16.1976 15.9078 16.3512 15.863 16.4576 15.8088C16.7163 15.677 16.9266 15.4666 17.0585 15.2079C17.1126 15.1016 17.1575 14.9479 17.1823 14.6443C17.2078 14.3324 17.2083 13.9287 17.2083 13.3337V9.16699C17.2083 8.57192 17.2078 8.16821 17.1823 7.85634C17.1575 7.55275 17.1126 7.39908 17.0585 7.29276C16.9266 7.03403 16.7163 6.82369 16.4576 6.69186C16.3512 6.63768 16.1976 6.59283 15.894 6.56802C15.5821 6.54254 15.1784 6.54199 14.5833 6.54199H5.41667C4.82159 6.54199 4.41788 6.54254 4.10602 6.56802Z" fill="var(------icon_primary, #1A1A1A)" style="fill:#1A1A1A;fill:color(display-p3 0.1020 0.1020 0.1020);fill-opacity:1;"/>
</svg>
