<svg width="20" height="20" viewBox="0 0 20 20" fill="none" xmlns="http://www.w3.org/2000/svg">
<path fill-rule="evenodd" clip-rule="evenodd" d="M3.38159 7.64649L4.65248 5.44524C4.70956 5.34636 4.82638 5.29872 4.93633 5.32948L5.54365 5.49934C6.75885 5.83922 8.01591 5.11351 8.32923 3.8912L8.48569 3.28086C8.51404 3.17027 8.6137 3.09294 8.72786 3.09294L11.27 3.09294C11.3841 3.09294 11.4838 3.17026 11.5121 3.28084L11.6688 3.89167C11.9822 5.11381 13.2391 5.83941 14.4542 5.49964L15.0611 5.32992C15.171 5.29918 15.2879 5.34682 15.3449 5.44569L16.6159 7.64712C16.673 7.74599 16.6559 7.87096 16.5743 7.95081L16.1239 8.39149C15.222 9.27397 15.2221 10.7254 16.124 11.6079L16.5745 12.0487C16.6561 12.1286 16.6732 12.2535 16.6162 12.3524L15.3452 14.5538C15.2881 14.6526 15.1713 14.7003 15.0614 14.6695L14.4541 14.4997C13.2389 14.1598 11.9817 14.8856 11.6685 16.1081L11.5119 16.7194C11.4835 16.83 11.3839 16.9074 11.2697 16.9074L8.9366 16.9074C8.80856 16.9074 8.70121 16.8106 8.68794 16.6833L8.65451 16.3623C8.51022 14.9773 7.15517 14.0546 5.81358 14.4278L4.93667 14.6717C4.82681 14.7023 4.71018 14.6546 4.65316 14.5559L3.38136 12.353C3.32427 12.2542 3.34142 12.1292 3.42304 12.0493L3.87414 11.608C4.77623 10.7255 4.77625 9.27385 3.87419 8.39134L3.42326 7.95019C3.34165 7.87035 3.3245 7.74536 3.38159 7.64649ZM2.43256 8.96284C1.88849 8.43057 1.77415 7.59732 2.15472 6.93815L3.42561 4.7369C3.80617 4.07776 4.58492 3.76016 5.31791 3.96517L5.92524 4.13503C6.37531 4.26091 6.84089 3.99213 6.95694 3.53942L7.11339 2.92909C7.30237 2.19184 7.96678 1.67627 8.72786 1.67627H11.27C12.031 1.67627 12.6954 2.19176 12.8844 2.92893L13.0411 3.53976C13.1571 3.99241 13.6226 4.26115 14.0727 4.13531L14.6796 3.96559C15.4126 3.76064 16.1913 4.07824 16.5718 4.73736L17.8428 6.93879C18.2233 7.5979 18.109 8.43108 17.5651 8.96337L17.1147 9.40404C16.7807 9.73089 16.7807 10.2685 17.1147 10.5953L17.5653 11.0361C18.1093 11.5684 18.2236 12.4016 17.843 13.0608L16.5721 15.2621C16.1915 15.9212 15.4128 16.2388 14.6798 16.0338L14.0726 15.864C13.6225 15.7381 13.1568 16.0069 13.0408 16.4597L12.8842 17.071C12.6953 17.8084 12.0308 18.324 11.2697 18.324L8.9366 18.324C8.08298 18.324 7.36735 17.6791 7.2789 16.8301L7.24547 16.5091C7.19203 15.9961 6.69016 15.6544 6.19327 15.7926L5.31636 16.0366C4.58392 16.2403 3.80642 15.9226 3.42629 15.2642L2.15449 13.0614C1.77391 12.4022 1.88827 11.5689 2.43236 11.0367L2.88347 10.5954C3.21758 10.2685 3.21759 9.73085 2.88349 9.40399L2.43256 8.96284ZM12.0949 9.99996C12.0949 11.1567 11.1572 12.0944 10.0005 12.0944C8.84371 12.0944 7.90598 11.1567 7.90598 9.99996C7.90598 8.84321 8.84371 7.90548 10.0005 7.90548C11.1572 7.90548 12.0949 8.84321 12.0949 9.99996ZM13.5116 9.99996C13.5116 11.9391 11.9396 13.5111 10.0005 13.5111C8.06131 13.5111 6.48931 11.9391 6.48931 9.99996C6.48931 8.06081 8.06131 6.48881 10.0005 6.48881C11.9396 6.48881 13.5116 8.06081 13.5116 9.99996Z" fill="var(------icon_allwhite_primary, white)" style="fill: var(------icon_allwhite_primary, white);fill-opacity:1;"/>
</svg>
