<svg width="48" height="12" viewBox="0 0 48 12" fill="none" xmlns="http://www.w3.org/2000/svg">
<path fill-rule="evenodd" clip-rule="evenodd" d="M5.42774 8.5844C6.70321 7.50561 8.57113 7.50577 9.84669 8.5844C9.91086 8.64244 9.94843 8.72446 9.9502 8.81097C9.95197 8.89746 9.91819 8.98083 9.85645 9.04143L7.85938 11.0571C7.80089 11.1162 7.72091 11.1498 7.6377 11.1498C7.55444 11.1498 7.47457 11.1163 7.41602 11.0571L5.41798 9.04143C5.35634 8.98081 5.32242 8.8974 5.32423 8.81097C5.32606 8.72446 5.36352 8.64239 5.42774 8.5844ZM2.7627 5.89495C5.51085 3.33892 9.76655 3.33884 12.5147 5.89495C12.5766 5.95483 12.6123 6.03731 12.6133 6.12347C12.6142 6.20962 12.5802 6.29276 12.5195 6.35393L11.3643 7.52093C11.2453 7.63975 11.0536 7.64246 10.9316 7.52679C10.0293 6.70965 8.85508 6.25726 7.6377 6.25726C6.42102 6.25776 5.24758 6.71012 4.34571 7.52679C4.22364 7.64266 4.03107 7.64002 3.91212 7.52093L2.75782 6.35393C2.69706 6.29285 2.66326 6.20963 2.66407 6.12347C2.66498 6.03731 2.70071 5.95481 2.7627 5.89495ZM0.0966866 3.21331C4.3118 -0.82586 10.9618 -0.826112 15.1768 3.21331C15.2377 3.27325 15.2719 3.3554 15.2725 3.44085C15.273 3.52641 15.239 3.60865 15.1787 3.66936L14.0225 4.83636C13.9033 4.95583 13.7107 4.95708 13.5899 4.83929C11.9839 3.31255 9.85255 2.46148 7.63673 2.46136C5.42063 2.46135 3.28877 3.3124 1.68262 4.83929C1.56183 4.95728 1.36905 4.95605 1.25001 4.83636L0.0937569 3.66936C0.0334926 3.6086 -0.000556156 3.52643 6.87362e-06 3.44085C0.000622824 3.35534 0.0356758 3.27323 0.0966866 3.21331Z" fill="var(-----------system_color_black, black)" style="fill: var(-----------system_color_black, black);fill-opacity:1;"/>
<rect opacity="0.35" x="23.7725" y="0.5" width="21" height="10.3333" rx="2.16667" stroke="var(-----------system_color_black, black)" style="stroke: var(-----------system_color_black, black);stroke-opacity:1;"/>
<path opacity="0.4" d="M46.2725 3.6665V7.6665C47.0772 7.32773 47.6005 6.53964 47.6005 5.6665C47.6005 4.79337 47.0772 4.00528 46.2725 3.6665Z" fill="var(-----------system_color_black, black)" style="fill: var(-----------system_color_black, black);fill-opacity:1;"/>
<rect x="25.2725" y="2" width="18" height="7.33333" rx="1.33333" fill="var(-----------system_color_black, black)" style="fill: var(-----------system_color_black, black);fill-opacity:1;"/>
</svg>
