<svg width="12" height="12" viewBox="0 0 12 12" fill="none" xmlns="http://www.w3.org/2000/svg">
<path d="M9.95679 2.06472C10.2862 2.09864 10.5256 2.39249 10.4919 2.72194L10.1853 5.70632C10.1514 6.03595 9.85674 6.27533 9.5271 6.24147C9.19781 6.20737 8.95825 5.91361 8.99194 5.58425L9.15015 4.05104C8.999 4.17611 8.85176 4.29619 8.70581 4.41725C8.37972 4.68775 8.05047 4.9567 7.66187 5.27565C8.04769 5.88459 8.27108 6.60983 8.27124 7.38307C8.27124 9.49356 6.61146 11.2493 4.5105 11.2493C2.40951 11.2493 0.749756 9.49358 0.749756 7.38307C0.750184 5.27294 2.40978 3.51784 4.5105 3.51784C5.40969 3.51785 6.22784 3.84005 6.86987 4.37331C7.26938 4.04581 7.60567 3.77091 7.94019 3.49343C8.09247 3.36711 8.24619 3.24202 8.40503 3.11061L6.84937 2.95046C6.52001 2.91635 6.28041 2.62267 6.31421 2.29323C6.34807 1.96359 6.64278 1.72422 6.97241 1.75807L9.95679 2.06472ZM4.5105 5.01784C3.28621 5.01784 2.25018 6.05254 2.24976 7.38307C2.24976 8.71401 3.28596 9.74929 4.5105 9.74929C5.73501 9.74926 6.77124 8.71399 6.77124 7.38307C6.77082 6.05255 5.73476 5.01787 4.5105 5.01784Z" fill="#4DB7FF" style="fill:#4DB7FF;fill:color(display-p3 0.3020 0.7176 1.0000);fill-opacity:1;"/>
</svg>
